<?xml version="1.0" encoding="UTF-8"?>
<svg version="1.1" xmlns="http://www.w3.org/2000/svg" width="1472" height="832">
<path d="M0 0 C485.76 0 971.52 0 1472 0 C1472 274.56 1472 549.12 1472 832 C986.24 832 500.48 832 0 832 C0 557.44 0 282.88 0 0 Z " fill="#E7E3DD" transform="translate(0,0)"/>
<path d="M0 0 C2.8125 2.4375 2.8125 2.4375 5 5 C5.495 5.495 5.495 5.495 6 6 C6.10628659 7.40209011 6.1440406 8.80945205 6.15390015 10.2155304 C6.16250061 11.12512009 6.17110107 12.03470978 6.17996216 12.97186279 C6.18422211 13.97799622 6.18848206 14.98412964 6.19287109 16.02075195 C6.20513733 17.60139687 6.20513733 17.60139687 6.21765137 19.213974 C6.24257935 22.72207057 6.25904708 26.23012625 6.2734375 29.73828125 C6.27876118 30.93596823 6.28408485 32.1336552 6.28956985 33.36763573 C6.31634326 39.71619401 6.33569808 46.06473241 6.35009766 52.41333008 C6.36668635 58.95564663 6.41140406 65.49745362 6.4624691 72.03957844 C6.49623509 77.0798547 6.50768587 82.12001198 6.51332474 87.16039085 C6.52001954 89.57038417 6.53519505 91.98037016 6.55921555 94.39025307 C6.74031793 113.6718011 4.93146543 125.70842998 -8.94140625 140 C-19.43583812 149.83720482 -32.56257173 153.6106793 -46.72265625 153.2109375 C-59.9032386 152.36260443 -70.78659002 146.31970616 -79.78125 136.66796875 C-83.36636402 132.35699538 -86.34792888 127.93833933 -89 123 C-89.43441406 122.21882813 -89.86882812 121.43765625 -90.31640625 120.6328125 C-95.11313311 110.17026542 -95.02458504 94.4430764 -91.3125 83.625 C-90.1953125 81.17578125 -90.1953125 81.17578125 -89 79 C-88.62617188 78.29230469 -88.25234375 77.58460938 -87.8671875 76.85546875 C-80.85821845 64.7174197 -70.39973628 56.18882512 -57 52 C-47.48769871 49.58571033 -35.89675466 49.76937541 -27 54 C-25.95328125 54.495 -24.9065625 54.99 -23.828125 55.5 C-15.37041284 59.62958716 -15.37041284 59.62958716 -14 61 C-13.99857498 60.32205887 -13.99714996 59.64411774 -13.99568176 58.94563293 C-13.97599354 51.8887182 -13.92173784 44.83266946 -13.84741211 37.77612305 C-13.82421678 35.14272271 -13.80983284 32.5092294 -13.80444336 29.87573242 C-13.79516572 26.08974157 -13.75419623 22.30521625 -13.70703125 18.51953125 C-13.7109639 17.34227982 -13.71489655 16.16502838 -13.71894836 14.95210266 C-13.55645683 5.84637027 -13.55645683 5.84637027 -10.58081055 2.7800293 C-6.77114196 0.15243554 -4.67188991 -0.54963411 0 0 Z " fill="#0D0C0B" transform="translate(598,320)"/>
<path d="M0 0 C3.17325182 2.44096294 3.57323353 4.92214571 4.1875 8.8125 C4.4040625 10.5140625 4.4040625 10.5140625 4.625 12.25 C5.12 13.735 5.12 13.735 5.625 15.25 C6.81659225 15.25586624 8.00818451 15.26173248 9.23588562 15.26777649 C20.46287984 15.32497745 31.68967987 15.39772546 42.91647625 15.48571491 C48.68836256 15.53045156 54.46017774 15.56970057 60.23217773 15.59643555 C65.80197959 15.62243543 71.37150822 15.66281467 76.94114113 15.71318626 C79.06657324 15.72987736 81.19205263 15.74137764 83.31754112 15.74761391 C86.29361014 15.75723044 89.2689766 15.78526096 92.24487305 15.81762695 C93.12456757 15.81619186 94.00426208 15.81475677 94.91061401 15.8132782 C99.62102582 15.88577698 102.82570274 16.1556191 106.625 19.25 C109.3066265 23.27243975 109.31457829 26.52265002 108.625 31.25 C106.56661475 34.58600367 104.8856736 36.0762176 101.625 38.25 C98.93885078 38.43927055 96.35745179 38.51084524 93.67146301 38.49050903 C92.44255239 38.49307231 92.44255239 38.49307231 91.1888153 38.49568737 C88.43413846 38.49899063 85.67970336 38.48796483 82.92504883 38.47705078 C80.95418809 38.47648685 78.98332693 38.47680288 77.01246643 38.47793579 C71.65327427 38.478511 66.29417113 38.46672946 60.9349997 38.45278788 C55.33758635 38.44030855 49.74017109 38.43911223 44.14274597 38.43673706 C33.53928553 38.43051405 22.93586619 38.41409213 12.33242387 38.39403808 C0.26245667 38.3717046 -11.80751246 38.36069208 -23.87749517 38.35064721 C-48.71001959 38.32972662 -73.5425075 38.29453471 -98.375 38.25 C-98.375 37.59 -98.375 36.93 -98.375 36.25 C-99.32375 36.188125 -100.2725 36.12625 -101.25 36.0625 C-104.375 35.25 -104.375 35.25 -105.75 33.1875 C-106.85711781 27.9840463 -107.42089653 24.00561203 -104.625 19.3125 C-100.61589299 15.63748524 -96.23069038 16.09222078 -91.0078125 16.06054688 C-90.2723822 16.05225357 -89.5369519 16.04396027 -88.77923584 16.03541565 C-87.18599568 16.01805089 -85.5927305 16.00287439 -83.99945068 15.98963928 C-81.47759445 15.96856274 -78.95586367 15.94154438 -76.43408203 15.91296387 C-70.17185737 15.84322531 -63.90954249 15.78377002 -57.6472168 15.72393799 C-52.35295304 15.67296305 -47.05875679 15.61812199 -41.7645874 15.55812073 C-39.28074155 15.5315785 -36.79688923 15.51074566 -34.31298828 15.4901123 C-32.78938494 15.47350652 -31.26578446 15.45663443 -29.7421875 15.43945312 C-28.70720123 15.4331765 -28.70720123 15.4331765 -27.65130615 15.42677307 C-24.4184038 15.38457267 -21.46915279 15.23109079 -18.375 14.25 C-18.13716797 13.12851562 -18.13716797 13.12851562 -17.89453125 11.984375 C-16.01012159 4.03029224 -16.01012159 4.03029224 -13.1875 0.5625 C-8.72830696 -1.51845675 -4.75706723 -1.50223176 0 0 Z " fill="#E68C45" transform="translate(610.375,486.75)"/>
<path d="M0 0 C6.6 0 13.2 0 20 0 C20.01981934 1.87703613 20.03963867 3.75407227 20.06005859 5.68798828 C20.12793969 11.90266149 20.20472332 18.11717532 20.28752708 24.33166695 C20.33738744 28.09802724 20.38371796 31.86436089 20.421875 35.63085938 C20.458858 39.26847139 20.50525239 42.90585468 20.55806351 46.54327011 C20.57653856 47.92823127 20.59167174 49.31324133 20.60334396 50.69827652 C20.62032414 52.64416462 20.6504899 54.58992393 20.68115234 56.53564453 C20.69447601 57.64150909 20.70779968 58.74737366 20.7215271 59.88674927 C21.29803113 66.33190639 23.69313789 72.19143218 28.7109375 76.453125 C36.2824192 82.01193435 44.88161055 82.03802604 54 81 C61.03236863 78.77876692 64.97020166 74.55159458 68.56958008 68.25366211 C71.06133685 62.2907571 70.48336936 55.66797281 70.51171875 49.31640625 C70.52858418 47.89149954 70.54673692 46.46660753 70.56611633 45.04173279 C70.61342067 41.31166176 70.64335587 37.58165039 70.66955566 33.85137939 C70.69946064 30.0368675 70.74595654 26.22256078 70.79101562 22.40820312 C70.87682592 14.93888681 70.94273381 7.46959969 71 0 C77.6 0 84.2 0 91 0 C91.06800694 8.31951613 91.12294852 16.63881304 91.15543652 24.95853329 C91.1710358 28.82247758 91.19216784 32.68622043 91.22631836 36.55004883 C91.25911834 40.28481058 91.27689607 44.0193796 91.28463173 47.75427437 C91.29013848 49.1731119 91.30089106 50.59193991 91.31719017 52.0106945 C91.40411671 59.89695022 91.22327558 66.73005248 88 74 C87.71025803 74.69798203 87.42051605 75.39596405 87.12199402 76.11509705 C82.28099616 87.38733743 72.37550526 94.95028939 61.328125 99.6640625 C56.35218231 101.44906458 51.49373592 101.53569934 46.25 101.5 C44.78965332 101.49141968 44.78965332 101.49141968 43.29980469 101.48266602 C35.64225047 101.29282515 29.61870596 100.0141226 23 96 C21.68515625 95.25556641 21.68515625 95.25556641 20.34375 94.49609375 C10.6301701 88.42510631 4.17248227 78.9513371 1 68 C0.18567408 63.82159371 -0.12220689 59.88137524 -0.11352539 55.62744141 C-0.11344986 54.38660797 -0.11337433 53.14577454 -0.11329651 51.86734009 C-0.10819113 50.52874714 -0.10297515 49.19015461 -0.09765625 47.8515625 C-0.09578906 46.47008312 -0.09436658 45.08860308 -0.09336853 43.7071228 C-0.08956702 40.08711897 -0.07975716 36.46715583 -0.06866455 32.84716797 C-0.05839935 29.14681549 -0.05386 25.44645639 -0.04882812 21.74609375 C-0.03813257 14.49737521 -0.02055516 7.24869851 0 0 Z " fill="#0F0E0D" transform="translate(623,372)"/>
<path d="M0 0 C6.93 0 13.86 0 21 0 C31.98253608 19.68298675 42.00400547 39.80381872 52 60 C54.63513979 57.36486021 55.45765688 54.37278357 56.6796875 50.93359375 C59.8750995 42.18203027 63.45710974 33.62451622 67.125 25.0625 C67.73857978 23.6218719 68.35186172 22.18111691 68.96484375 20.74023438 C71.9221111 13.80098689 74.93599637 6.89400816 78 0 C84.93 0 91.86 0 99 0 C95.62649368 10.12051895 95.62649368 10.12051895 93.9765625 13.85546875 C93.41424927 15.13780396 93.41424927 15.13780396 92.84057617 16.44604492 C92.23886597 17.80306519 92.23886597 17.80306519 91.625 19.1875 C90.73796069 21.20819265 89.85126009 23.229034 88.96484375 25.25 C88.25303955 26.86841797 88.25303955 26.86841797 87.52685547 28.51953125 C85.01344642 34.24884999 82.52426684 39.98864046 80.03656006 45.72915649 C79.21044543 47.63457673 78.38291554 49.53937709 77.55517578 51.4440918 C75.15829961 56.96954168 72.78185845 62.50044587 70.48046875 68.06640625 C67.3081672 75.71717639 63.90941825 83.26520758 60.5246582 90.82373047 C57.14694937 98.37747704 57.14694937 98.37747704 53.91015625 105.9921875 C49.7281036 116.07494458 45.5234741 125.46401978 35 130 C32.68104777 130.63596683 30.37899424 131.16336996 28.015625 131.60546875 C25.80751489 131.9929923 25.80751489 131.9929923 23 133 C19.8125 132.0625 19.8125 132.0625 17 131 C18.04746824 125.04597003 19.24154436 118.893314 23 114 C25 113.33333333 27 112.66666667 29 112 C30.65814855 109.28666601 31.818694 106.91634918 33 104 C33.4125 103.0615625 33.825 102.123125 34.25 101.15625 C35.13335741 99.11611504 35.98189452 97.06058732 36.796875 94.9921875 C38 92 38 92 39.265625 89.5703125 C40.50555696 86.82210509 40.93438575 85.03390205 41 82 C39.95643734 79.43066664 38.87690517 77.14033942 37.5625 74.71875 C36.81555967 73.287098 36.06924091 71.85512158 35.32348633 70.42285156 C34.93681793 69.69038208 34.55014954 68.9579126 34.15176392 68.20324707 C32.33736343 64.73242072 30.61527587 61.21725342 28.88671875 57.703125 C21.94892489 43.70559329 14.98442994 29.76203954 7.296875 16.15625 C0 3.13063258 0 3.13063258 0 0 Z " fill="#0C0C0B" transform="translate(867,372)"/>
<path d="M0 0 C1.55336242 0.02009357 3.1067499 0.0383393 4.66015625 0.0546875 C8.44072979 0.09846321 12.22008511 0.16733026 16 0.25 C14.69100294 3.06414352 13.37721835 5.87602537 12.0625 8.6875 C11.68931641 9.48994141 11.31613281 10.29238281 10.93164062 11.11914062 C10.39506836 12.26479492 10.39506836 12.26479492 9.84765625 13.43359375 C9.3527771 14.49404907 9.3527771 14.49404907 8.84790039 15.57592773 C8 17.25 8 17.25 7 18.25 C3.23278835 18.42003463 -0.52811486 18.54736585 -4.29882812 18.59179688 C-5.09353516 18.61951172 -5.88824219 18.64722656 -6.70703125 18.67578125 C-7.4338208 18.69036377 -8.16061035 18.70494629 -8.90942383 18.7199707 C-11.94634075 19.48992827 -13.12508093 20.76674741 -15 23.25 C-15.63828469 26.13873888 -15.63828469 26.13873888 -15.609375 29.328125 C-15.63999023 30.37387695 -15.67060547 31.41962891 -15.70214844 32.49707031 C-15.71793945 33.81803711 -15.73373047 35.13900391 -15.75 36.5 C-15.8325 40.7075 -15.915 44.915 -16 49.25 C-6.43 49.25 3.14 49.25 13 49.25 C11.7245695 55.62715248 9.38428265 61.1975902 7 67.25 C-0.59 67.25 -8.18 67.25 -16 67.25 C-16 94.31 -16 121.37 -16 149.25 C-22.6 149.25 -29.2 149.25 -36 149.25 C-36 122.19 -36 95.13 -36 67.25 C-41.94 67.25 -47.88 67.25 -54 67.25 C-52.96766217 61.05597304 -51.21101681 56.09849608 -49 50.25 C-44.71 50.25 -40.42 50.25 -36 50.25 C-36.03480469 48.249375 -36.06960938 46.24875 -36.10546875 44.1875 C-36.12634871 42.22478358 -36.14711463 40.26206426 -36.16479492 38.29931641 C-36.18709408 36.28663752 -36.22523653 34.27415416 -36.26367188 32.26171875 C-36.33476907 22.82949084 -35.86786341 15.78669199 -29.3125 8.5 C-28.68988281 7.78328125 -28.06726563 7.0665625 -27.42578125 6.328125 C-18.96469412 -0.92034256 -10.52589923 -0.23714034 0 0 Z " fill="#0D0D0C" transform="translate(779,322.75)"/>
<path d="M0 0 C1.0236264 0.00212242 1.0236264 0.00212242 2.06793213 0.00428772 C4.23804184 0.00986541 6.4080467 0.02241371 8.578125 0.03515625 C10.05338392 0.04017414 11.52864447 0.04473654 13.00390625 0.04882812 C16.61201298 0.0598275 20.22005875 0.07707672 23.828125 0.09765625 C23.52213379 0.8546582 23.21614258 1.61166016 22.90087891 2.39160156 C22.1139375 4.37668543 21.37500849 6.38097953 20.6640625 8.39453125 C19.05223038 12.20431626 17.62449725 15.02941448 14.828125 18.09765625 C10.55649478 19.20463359 6.9396522 19.3274476 2.5703125 19.140625 C-1.49021616 18.85570043 -1.49021616 18.85570043 -6.171875 21.09765625 C-6.501875 30.33765625 -6.831875 39.57765625 -7.171875 49.09765625 C2.728125 49.09765625 12.628125 49.09765625 22.828125 49.09765625 C22.04051499 53.03570629 21.09685722 56.56011743 19.828125 60.34765625 C19.4775 61.4046875 19.126875 62.46171875 18.765625 63.55078125 C17.828125 66.09765625 17.828125 66.09765625 16.828125 67.09765625 C8.908125 67.09765625 0.988125 67.09765625 -7.171875 67.09765625 C-7.171875 94.15765625 -7.171875 121.21765625 -7.171875 149.09765625 C-13.441875 149.09765625 -19.711875 149.09765625 -26.171875 149.09765625 C-26.171875 122.03765625 -26.171875 94.97765625 -26.171875 67.09765625 C-32.771875 67.09765625 -39.371875 67.09765625 -46.171875 67.09765625 C-45.05002211 60.3665389 -42.87694057 55.34011526 -40.171875 49.09765625 C-35.881875 49.09765625 -31.591875 49.09765625 -27.171875 49.09765625 C-27.21828125 47.19242187 -27.2646875 45.2871875 -27.3125 43.32421875 C-27.35003835 40.79038035 -27.38643628 38.25652488 -27.421875 35.72265625 C-27.45539062 34.47097656 -27.48890625 33.21929687 -27.5234375 31.9296875 C-27.61908133 22.79570157 -26.25377389 16.05070803 -21.421875 8.28515625 C-14.87327834 1.91846505 -9.01209463 -0.03693481 0 0 Z " fill="#0D0C0B" transform="translate(841.171875,322.90234375)"/>
<path d="M0 0 C7.7371063 5.22181129 14.29267569 11.43080284 16.65234375 20.74609375 C18.31705319 31.67175962 17.27362846 40.12710091 11.0546875 49.38671875 C5.99280011 56.05153715 -0.77269673 59.73976576 -8.9453125 61.38671875 C-18.39421247 62.16048694 -26.7097433 60.80299644 -34.31640625 54.890625 C-41.83620877 47.94788166 -44.90998331 40.25821987 -45.44946289 30.1965332 C-45.6677722 21.78842767 -44.54865783 15.9840056 -38.9453125 9.38671875 C-38.41550781 8.73316406 -37.88570312 8.07960938 -37.33984375 7.40625 C-27.98295532 -3.01745706 -12.76457263 -6.8639683 0 0 Z " fill="#E5E2DD" transform="translate(568.9453125,392.61328125)"/>
<path d="M0 0 C1.18851563 0.10183594 2.37703125 0.20367187 3.6015625 0.30859375 C4.97441406 0.43427734 4.97441406 0.43427734 6.375 0.5625 C7.89155324 4.91488449 8.82499802 8.97915016 9.375 13.5625 C15.31059515 16.11895402 19.97932899 16.98662306 26.40551758 16.88720703 C27.26993469 16.88603882 28.13435181 16.88487061 29.02496338 16.88366699 C31.85673803 16.87653069 34.68789359 16.8483688 37.51953125 16.8203125 C39.49630698 16.812169 41.47308933 16.80550841 43.44987488 16.80026245 C48.63553535 16.78319923 53.82093136 16.74897023 59.00646973 16.71020508 C67.32344711 16.65084141 75.64056068 16.6171668 83.95767784 16.58443832 C86.86213237 16.57046833 89.76645501 16.54888396 92.67085266 16.52615356 C94.44438589 16.51613321 96.21791999 16.50626755 97.99145508 16.49658203 C98.80031662 16.48827362 99.60917816 16.47996521 100.44255066 16.47140503 C103.691075 16.45843229 106.26956937 16.52735646 109.375 17.5625 C109.375 18.5525 109.375 19.5425 109.375 20.5625 C110.365 20.8925 111.355 21.2225 112.375 21.5625 C113.83730215 24.48710429 113.58408727 27.11902824 113.625 30.375 C113.66367187 32.20998047 113.66367187 32.20998047 113.703125 34.08203125 C113.3430545 37.9013505 112.71864246 39.56335904 110.375 42.5625 C107.91023254 43.26386642 107.91023254 43.26386642 104.88208008 43.3649292 C103.71278961 43.41118187 102.54349915 43.45743454 101.33877563 43.50508881 C100.03072968 43.5240345 98.72268372 43.54298019 97.375 43.5625 C96.68580349 43.57587434 95.99660698 43.58924868 95.28652573 43.6030283 C89.61150015 43.70968934 83.93758783 43.72036593 78.26171875 43.72363281 C76.3664592 43.72827095 74.47120057 43.73329692 72.57594299 43.73867798 C67.46703623 43.75169413 62.35814252 43.75822373 57.2492218 43.76268864 C54.05453316 43.76563234 50.859848 43.76973915 47.66516113 43.77419281 C37.65976925 43.78782915 27.65438543 43.7975189 17.64898491 43.8013947 C6.11375047 43.8058889 -5.42136627 43.82351578 -16.9565649 43.8523953 C-25.89101625 43.87398649 -34.82543437 43.88409734 -43.75991154 43.88543582 C-49.09028228 43.88648417 -54.42054179 43.89240062 -59.75088501 43.91025543 C-64.75458171 43.92669533 -69.75808292 43.92891157 -74.76179695 43.92011642 C-76.59802841 43.9193443 -78.43427025 43.92371181 -80.27047539 43.93357468 C-82.775278 43.94624182 -85.27938233 43.9404466 -87.78417969 43.92999268 C-88.87546157 43.94207728 -88.87546157 43.94207728 -89.98878956 43.95440602 C-95.36080921 43.90190081 -98.53969952 42.57332547 -102.375 38.875 C-104.20544993 35.48866763 -104.30617792 32.38836493 -104.625 28.5625 C-105.285 28.5625 -105.945 28.5625 -106.625 28.5625 C-105.08957536 24.08417812 -103.01645948 19.75822974 -98.625 17.5625 C-96.55018594 17.44699146 -94.47170415 17.39552077 -92.39379883 17.37304688 C-91.08095413 17.35632935 -89.76810944 17.33961182 -88.41548157 17.3223877 C-87.35777274 17.31236473 -87.35777274 17.31236473 -86.27869606 17.30213928 C-84.06061522 17.28104634 -81.84267613 17.25401535 -79.62467957 17.22546387 C-74.89567584 17.16572214 -70.16660161 17.11380533 -65.4375 17.0625 C-59.9978265 17.00285538 -54.55821809 16.9398823 -49.11865807 16.87062073 C-46.9594013 16.84453373 -44.80013653 16.82340965 -42.64082336 16.8026123 C-33.60161418 16.69938857 -24.6357137 16.25715039 -15.625 15.5625 C-15.625 14.5725 -15.625 13.5825 -15.625 12.5625 C-14.965 12.5625 -14.305 12.5625 -13.625 12.5625 C-13.295 9.5925 -12.965 6.6225 -12.625 3.5625 C-11.635 3.5625 -10.645 3.5625 -9.625 3.5625 C-9.295 2.5725 -8.965 1.5825 -8.625 0.5625 C-5.68113377 -0.90943312 -3.25109964 -0.28686173 0 0 Z M-11.625 6.5625 C-12.91359639 10.17368747 -13.83011052 13.81424064 -14.625 17.5625 C-18.37410145 18.75290961 -22.08378185 18.72130717 -25.97631836 18.73608398 C-27.07705437 18.7461145 -27.07705437 18.7461145 -28.20002747 18.75634766 C-29.78999631 18.77037087 -31.37998496 18.78227355 -32.96998405 18.79229546 C-35.48792108 18.80874451 -38.00571118 18.8319832 -40.52357483 18.85719299 C-47.6812505 18.92786617 -54.83898524 18.98809293 -61.99682617 19.03930664 C-66.37816587 19.07113018 -70.75933445 19.11241081 -75.14053535 19.15950203 C-76.80823245 19.17549755 -78.47596889 19.18783042 -80.14372063 19.19640923 C-82.47741927 19.20858863 -84.81071669 19.23274823 -87.14428711 19.25952148 C-87.83068268 19.26011063 -88.51707825 19.26069977 -89.22427368 19.26130676 C-94.03029456 19.33422085 -97.79565299 19.92239579 -101.4375 23.1875 C-103.61398837 27.54047675 -102.97780356 31.90432326 -102 36.5 C-100.72633069 38.90630854 -100.72633069 38.90630854 -97.5 39.375 C-96.55125 39.436875 -95.6025 39.49875 -94.625 39.5625 C-94.625 40.2225 -94.625 40.8825 -94.625 41.5625 C-68.65191921 41.67926471 -42.67887771 41.76745467 -16.70558739 41.82156086 C-4.64592087 41.84735026 7.41358264 41.88251509 19.47314453 41.93969727 C29.98339012 41.9895094 40.49351765 42.02178565 51.003878 42.03294247 C56.569879 42.03946488 62.13554226 42.05481009 67.70143509 42.09115028 C72.939771 42.12507489 78.17762988 42.13555998 83.41606522 42.12803841 C85.33896476 42.12941452 87.26188017 42.13936794 89.18468475 42.15852737 C91.81060916 42.18341056 94.4347333 42.17742304 97.06069946 42.16377258 C98.20176838 42.18561889 98.20176838 42.18561889 99.36588919 42.20790654 C105.1390567 42.12680124 107.47970623 40.52605985 111.375 36.5625 C113.10507568 33.10234865 112.8585273 29.34577445 112.375 25.5625 C110.26108123 22.06359996 109.25763941 20.85671314 105.375 19.5625 C104.04252504 19.46360961 102.70578879 19.41650722 101.3697052 19.40428162 C100.55782242 19.3944928 99.74593964 19.38470398 98.90945435 19.37461853 C98.02256927 19.36886307 97.1356842 19.3631076 96.22192383 19.35717773 C94.81675255 19.34232834 94.81675255 19.34232834 93.38319397 19.32717896 C90.28283222 19.29555911 87.18245514 19.27080454 84.08203125 19.24609375 C81.93397114 19.22552465 79.78591508 19.20452819 77.63786316 19.18312073 C71.98095987 19.12789557 66.32402003 19.0784882 60.66705322 19.03027344 C54.89584088 18.98006169 49.1246817 18.92437392 43.35351562 18.86914062 C32.02738915 18.7615536 20.70121654 18.66010979 9.375 18.5625 C9.19324219 17.73105469 9.01148438 16.89960938 8.82421875 16.04296875 C8.57285156 14.95628906 8.32148437 13.86960937 8.0625 12.75 C7.81886719 11.67105469 7.57523438 10.59210938 7.32421875 9.48046875 C6.38215759 6.58450297 5.74127149 5.393471 3.375 3.5625 C-2.10771014 0.82114493 -7.86464038 1.94262961 -11.625 6.5625 Z " fill="#F7E1CD" transform="translate(606.625,483.4375)"/>
<path d="M0 0 C3.17325182 2.44096294 3.57323353 4.92214571 4.1875 8.8125 C4.4040625 10.5140625 4.4040625 10.5140625 4.625 12.25 C5.12 13.735 5.12 13.735 5.625 15.25 C3.975 15.25 2.325 15.25 0.625 15.25 C-0.33570434 12.36788698 -0.48081883 10.55149956 -0.4375 7.5625 C-0.42847656 6.75425781 -0.41945313 5.94601562 -0.41015625 5.11328125 C-0.39855469 4.49839844 -0.38695312 3.88351562 -0.375 3.25 C-1.035 3.25 -1.695 3.25 -2.375 3.25 C-2.375 2.59 -2.375 1.93 -2.375 1.25 C-5.345 1.25 -8.315 1.25 -11.375 1.25 C-12.035 5.54 -12.695 9.83 -13.375 14.25 C-14.695 14.58 -16.015 14.91 -17.375 15.25 C-17.87 16.735 -17.87 16.735 -18.375 18.25 C-27.93847677 20.10652623 -37.11829773 20.53612657 -46.82714844 20.45581055 C-49.16351905 20.43719306 -51.49949939 20.435304 -53.8359375 20.43554688 C-55.32292012 20.430643 -56.80990007 20.42481969 -58.296875 20.41796875 C-58.9946405 20.41685593 -59.69240601 20.4157431 -60.41131592 20.41459656 C-65.25882657 20.36617343 -65.25882657 20.36617343 -66.375 19.25 C-68.66651417 19.16209025 -70.96072524 19.14305962 -73.25390625 19.15234375 C-73.9405687 19.1537587 -74.62723114 19.15517365 -75.33470154 19.15663147 C-77.53567801 19.16224521 -79.73655409 19.17479993 -81.9375 19.1875 C-83.42643083 19.19251324 -84.91536324 19.19707645 -86.40429688 19.20117188 C-90.06123075 19.21221907 -93.71810558 19.22949287 -97.375 19.25 C-97.684375 20.343125 -97.99375 21.43625 -98.3125 22.5625 C-98.95837897 24.80407994 -99.6373117 27.0369351 -100.375 29.25 C-99.715 29.25 -99.055 29.25 -98.375 29.25 C-98.045 30.9 -97.715 32.55 -97.375 34.25 C-96.07645584 34.24666908 -96.07645584 34.24666908 -94.75167847 34.24327087 C-86.48806039 34.22301475 -78.22445097 34.20789924 -69.96081352 34.19818783 C-65.71507562 34.19302688 -61.46935866 34.18605704 -57.22363281 34.17456055 C-38.91513718 34.12624262 -20.65739376 34.11263969 -2.375 35.25 C-2.375 35.58 -2.375 35.91 -2.375 36.25 C31.945 36.58 66.265 36.91 101.625 37.25 C101.625 37.58 101.625 37.91 101.625 38.25 C35.625 38.25 -30.375 38.25 -98.375 38.25 C-98.375 37.59 -98.375 36.93 -98.375 36.25 C-99.32375 36.188125 -100.2725 36.12625 -101.25 36.0625 C-104.375 35.25 -104.375 35.25 -105.75 33.1875 C-106.85711781 27.9840463 -107.42089653 24.00561203 -104.625 19.3125 C-100.61589299 15.63748524 -96.23069038 16.09222078 -91.0078125 16.06054688 C-90.2723822 16.05225357 -89.5369519 16.04396027 -88.77923584 16.03541565 C-87.18599568 16.01805089 -85.5927305 16.00287439 -83.99945068 15.98963928 C-81.47759445 15.96856274 -78.95586367 15.94154438 -76.43408203 15.91296387 C-70.17185737 15.84322531 -63.90954249 15.78377002 -57.6472168 15.72393799 C-52.35295304 15.67296305 -47.05875679 15.61812199 -41.7645874 15.55812073 C-39.28074155 15.5315785 -36.79688923 15.51074566 -34.31298828 15.4901123 C-32.78938494 15.47350652 -31.26578446 15.45663443 -29.7421875 15.43945312 C-28.70720123 15.4331765 -28.70720123 15.4331765 -27.65130615 15.42677307 C-24.4184038 15.38457267 -21.46915279 15.23109079 -18.375 14.25 C-18.13716797 13.12851562 -18.13716797 13.12851562 -17.89453125 11.984375 C-16.01012159 4.03029224 -16.01012159 4.03029224 -13.1875 0.5625 C-8.72830696 -1.51845675 -4.75706723 -1.50223176 0 0 Z " fill="#E0AE77" transform="translate(610.375,486.75)"/>
<path d="M0 0 C1.70298634 0.00281826 3.40597465 0.01705133 5.10881042 0.03987122 C6.03741379 0.04451385 6.96601715 0.04915649 7.92276001 0.05393982 C11.00472849 0.0723796 14.08631226 0.10590465 17.1681366 0.14070129 C19.30563978 0.15925306 21.44314704 0.17733884 23.58065796 0.19497681 C28.06735364 0.23453874 32.55388748 0.28191951 37.04045105 0.33430481 C42.79058971 0.40051625 48.5406464 0.44419721 54.29103565 0.48156261 C58.70835922 0.51331457 63.1254645 0.5587063 67.54262352 0.60804176 C69.66246541 0.62975844 71.78235999 0.64684079 73.90227699 0.65921593 C76.86861082 0.678255 79.83413989 0.7160474 82.80021667 0.75862122 C83.6767691 0.76032822 84.55332153 0.76203522 85.45643616 0.76379395 C90.15526378 0.85310277 93.357072 1.1413622 97.14860535 4.22273254 C99.82766264 8.24131849 99.84471228 11.49914976 99.14860535 16.22273254 C97.35466867 19.09303123 96.16597258 20.71404893 93.14860535 22.22273254 C91.61822581 22.31767252 90.08378173 22.35067811 88.55046082 22.35212708 C87.11789444 22.35685532 87.11789444 22.35685532 85.65638733 22.36167908 C84.61999115 22.35965485 83.58359497 22.35763062 82.51579285 22.35554504 C81.44998993 22.35650177 80.38418701 22.3574585 79.28608704 22.35844421 C77.02476442 22.35912593 74.76343985 22.35727226 72.50212097 22.35310364 C69.05871607 22.34778676 65.6154435 22.35303257 62.17204285 22.35945129 C59.97412589 22.35878989 57.77620902 22.35750745 55.57829285 22.35554504 C54.04191666 22.35858139 54.04191666 22.35858139 52.47450256 22.36167908 C46.93825574 22.34376131 41.62537008 22.04233458 36.14860535 21.22273254 C36.14860535 20.89273254 36.14860535 20.56273254 36.14860535 20.22273254 C42.69405379 19.38163223 49.05767977 19.0879169 55.6525116 19.12507629 C56.61640305 19.12649124 57.58029449 19.12790619 58.57339478 19.12936401 C61.61933133 19.13491312 64.66519142 19.14745586 67.71110535 19.16023254 C69.78988032 19.16525413 71.86865646 19.16981588 73.94743347 19.17390442 C79.01451974 19.18486583 84.08154963 19.20209475 89.14860535 19.22273254 C90.25696957 17.33957096 90.25696957 17.33957096 91.14860535 15.22273254 C90.65360535 14.23273254 90.65360535 14.23273254 90.14860535 13.22273254 C90.80860535 13.22273254 91.46860535 13.22273254 92.14860535 13.22273254 C92.14860535 12.23273254 92.14860535 11.24273254 92.14860535 10.22273254 C89.09947307 9.21162162 89.09947307 9.21162162 86.14860535 10.22273254 C86.47860535 8.24273254 86.80860535 6.26273254 87.14860535 4.22273254 C86.15860535 4.55273254 85.16860535 4.88273254 84.14860535 5.22273254 C83.42544128 5.06957581 82.70227722 4.91641907 81.9571991 4.75862122 C78.31530338 4.06373586 74.87905951 4.37793954 71.21110535 4.64851379 C58.84734881 5.42216768 46.48368236 5.40880889 34.09977722 5.40803528 C30.76549524 5.40988949 27.43156776 5.4218158 24.09735107 5.43880749 C20.88527675 5.45254418 17.67320509 5.45201246 14.46110535 5.45320129 C12.67071838 5.46397957 12.67071838 5.46397957 10.84416199 5.47497559 C9.19468567 5.47036064 9.19468567 5.47036064 7.5118866 5.46565247 C6.54549255 5.46707748 5.57909851 5.4685025 4.5834198 5.4699707 C2.14860535 5.22273254 2.14860535 5.22273254 -0.85139465 3.22273254 C-2.50688997 2.83773363 -4.17363796 2.4948012 -5.85139465 2.22273254 C-3.85139465 0.22273254 -3.85139465 0.22273254 0 0 Z " fill="#D66349" transform="translate(619.8513946533203,501.7772674560547)"/>
<path d="M0 0 C1.18851563 0.10183594 2.37703125 0.20367187 3.6015625 0.30859375 C4.97441406 0.43427734 4.97441406 0.43427734 6.375 0.5625 C7.89155324 4.91488449 8.82499802 8.97915016 9.375 13.5625 C12.015 14.5525 14.655 15.5425 17.375 16.5625 C17.375 17.2225 17.375 17.8825 17.375 18.5625 C47.075 18.5625 76.775 18.5625 107.375 18.5625 C107.375 19.2225 107.375 19.8825 107.375 20.5625 C94.92705742 20.52448685 82.47941663 20.4651889 70.03171158 20.37859726 C64.25192364 20.33906194 58.47228945 20.30690312 52.69238281 20.29150391 C47.11604566 20.27637729 41.540131 20.24200271 35.96398163 20.19419098 C33.83493468 20.17933592 31.70582743 20.17145663 29.57672882 20.17061615 C26.59789302 20.16825717 23.62023502 20.14126349 20.64160156 20.10839844 C19.31666687 20.11594398 19.31666687 20.11594398 17.96496582 20.12364197 C11.99903684 20.02157977 11.99903684 20.02157977 8.84759521 17.70318604 C7.03145148 15.06308949 6.57670823 12.97445759 6.125 9.8125 C5.97546875 8.82765625 5.8259375 7.8428125 5.671875 6.828125 C5.57390625 6.08046875 5.4759375 5.3328125 5.375 4.5625 C0.58665329 3.23715403 -4.24335254 2.59696724 -8.9375 4.5 C-11.17356281 7.23296566 -11.9082823 10.02193713 -12.81640625 13.40625 C-13.99767299 16.55629465 -15.64858017 18.07429009 -18.625 19.5625 C-21.0087044 19.67409517 -23.36468118 19.72712521 -25.74926758 19.73608398 C-26.48279953 19.742771 -27.21633148 19.74945801 -27.97209167 19.75634766 C-29.56755211 19.77041123 -31.16303283 19.78230111 -32.75852394 19.79229546 C-35.28470311 19.80869223 -37.81073266 19.8319306 -40.33683777 19.85719299 C-47.52013704 19.92799743 -54.70349819 19.98803649 -61.88696289 20.03930664 C-66.27896432 20.07113401 -70.67079519 20.11242193 -75.06265831 20.15950203 C-76.73593763 20.17550291 -78.40925626 20.18783331 -80.0825901 20.19640923 C-82.42608531 20.20859047 -84.76918124 20.23275274 -87.11254883 20.25952148 C-87.80208649 20.26011063 -88.49162415 20.26069977 -89.20205688 20.26130676 C-93.09278912 20.32006949 -96.18223266 20.69604393 -99.625 22.5625 C-102.59468084 27.01702125 -101.97403947 31.46826317 -101.125 36.5625 C-100.96 37.2225 -100.795 37.8825 -100.625 38.5625 C-98.645 38.8925 -96.665 39.2225 -94.625 39.5625 C-94.625 39.8925 -94.625 40.2225 -94.625 40.5625 C-100.0430602 41.04410535 -100.0430602 41.04410535 -102.4375 39.0625 C-104.10206212 35.55815869 -104.30308633 32.42546406 -104.625 28.5625 C-105.285 28.5625 -105.945 28.5625 -106.625 28.5625 C-105.08957536 24.08417812 -103.01645948 19.75822974 -98.625 17.5625 C-96.55018594 17.44699146 -94.47170415 17.39552077 -92.39379883 17.37304688 C-91.08095413 17.35632935 -89.76810944 17.33961182 -88.41548157 17.3223877 C-87.35777274 17.31236473 -87.35777274 17.31236473 -86.27869606 17.30213928 C-84.06061522 17.28104634 -81.84267613 17.25401535 -79.62467957 17.22546387 C-74.89567584 17.16572214 -70.16660161 17.11380533 -65.4375 17.0625 C-59.9978265 17.00285538 -54.55821809 16.9398823 -49.11865807 16.87062073 C-46.9594013 16.84453373 -44.80013653 16.82340965 -42.64082336 16.8026123 C-33.60161418 16.69938857 -24.6357137 16.25715039 -15.625 15.5625 C-15.625 14.5725 -15.625 13.5825 -15.625 12.5625 C-14.965 12.5625 -14.305 12.5625 -13.625 12.5625 C-13.295 9.5925 -12.965 6.6225 -12.625 3.5625 C-11.635 3.5625 -10.645 3.5625 -9.625 3.5625 C-9.295 2.5725 -8.965 1.5825 -8.625 0.5625 C-5.68113377 -0.90943312 -3.25109964 -0.28686173 0 0 Z " fill="#F7DABD" transform="translate(606.625,483.4375)"/>
<path d="M0 0 C0.35480978 4.98704856 0.58540154 8.82919691 -1.6875 13.375 C-6.10880829 18.39378238 -6.10880829 18.39378238 -9 20 C-12.9027847 20.22026298 -16.58176422 20.13653141 -19.7109375 17.62890625 C-22.5254312 14.07240967 -22.44165569 10.34294765 -22 6 C-16.75907578 -2.78050363 -9.07712847 -1.86197507 0 0 Z " fill="#26AEC9" transform="translate(893,504)"/>
<path d="M0 0 C4.6 2.2 4.6 2.2 6 5 C6.375 8.3125 6.375 8.3125 6 12 C3.01893932 15.6086524 0.85870127 17.75217316 -3.8125 18.375 C-7 18 -7 18 -9.875 16 C-12.24214679 12.65814571 -12.76091862 10.93959545 -12.48046875 6.9375 C-10.86102498 0.4070601 -5.99754162 -0.85679166 0 0 Z " fill="#141310" transform="translate(765,505)"/>
<path d="M0 0 C4.6 2.2 4.6 2.2 6 5 C6.13862367 8.12204618 5.86492214 10.99412861 5 14 C2.01215962 16.84887106 -0.04429735 17.80495864 -4.0625 18.625 C-7.48407431 17.89700547 -9.02508582 16.60751173 -11.078125 13.78125 C-12.70252444 10.64257989 -12.62314186 8.42728024 -12 5 C-8.55801715 0.097782 -5.87587932 -0.83941133 0 0 Z " fill="#131311" transform="translate(812,505)"/>
<path d="M0 0 C2.44569066 -0.00683233 4.89137418 -0.01708265 7.33703613 -0.03076172 C10.80892733 -0.04865837 14.28057041 -0.05292096 17.75250244 -0.05322266 C18.80012253 -0.06036789 19.84774261 -0.06751312 20.92710876 -0.07487488 C21.89920792 -0.07183853 22.87130707 -0.06880219 23.87286377 -0.06567383 C25.14133904 -0.06781136 25.14133904 -0.06781136 26.43544006 -0.06999207 C29.23387343 0.21560984 31.34611179 0.91915113 33.85797119 2.17724609 C35.60473343 6.8800675 35.42791376 12.46741838 33.85797119 17.17724609 C31.87797119 17.17724609 29.89797119 17.17724609 27.85797119 17.17724609 C28.20859619 16.55849609 28.55922119 15.93974609 28.92047119 15.30224609 C29.38453369 14.25037109 29.38453369 14.25037109 29.85797119 13.17724609 C29.36297119 12.18724609 29.36297119 12.18724609 28.85797119 11.17724609 C29.51797119 11.17724609 30.17797119 11.17724609 30.85797119 11.17724609 C30.85797119 10.18724609 30.85797119 9.19724609 30.85797119 8.17724609 C27.80883891 7.16613517 27.80883891 7.16613517 24.85797119 8.17724609 C25.18797119 6.19724609 25.51797119 4.21724609 25.85797119 2.17724609 C24.86797119 2.50724609 23.87797119 2.83724609 22.85797119 3.17724609 C22.13456543 3.02392822 21.41115967 2.87061035 20.66583252 2.71264648 C17.02717318 2.0188303 13.5963921 2.33785857 9.93218994 2.61083984 C-3.81022561 3.47840432 -17.5663252 3.28456085 -31.32952881 3.23974609 C-34.03720964 3.23413811 -36.74489208 3.23008826 -39.45257568 3.22607422 C-46.01574693 3.21517582 -52.57888348 3.1985398 -59.14202881 3.17724609 C-59.14202881 2.51724609 -59.14202881 1.85724609 -59.14202881 1.17724609 C-39.43149582 0.37811299 -19.72646226 0.04970942 0 0 Z " fill="#D35C43" transform="translate(681.1420288085938,503.82275390625)"/>
<path d="M0 0 C9.26844169 -0.02343548 18.53687278 -0.04107084 27.80533791 -0.05181217 C32.11160981 -0.0569741 36.41786107 -0.06394588 40.72412109 -0.07543945 C59.17429291 -0.12343562 77.57640759 -0.15196154 96 1 C96 1.33 96 1.66 96 2 C74.00507117 3.05057079 52.01403684 3.08821733 30 3.0625 C28.89313843 3.06121597 28.89313843 3.06121597 27.76391602 3.05990601 C18.50925386 3.04838452 9.25462759 3.02812356 0 3 C0 2.01 0 1.02 0 0 Z " fill="#E0AA57" transform="translate(512,521)"/>
<path d="M0 0 C1.70298634 0.00281826 3.40597465 0.01705133 5.10881042 0.03987122 C6.03741379 0.04451385 6.96601715 0.04915649 7.92276001 0.05393982 C11.00472849 0.0723796 14.08631226 0.10590465 17.1681366 0.14070129 C19.30563978 0.15925306 21.44314704 0.17733884 23.58065796 0.19497681 C28.06735364 0.23453874 32.55388748 0.28191951 37.04045105 0.33430481 C42.79058971 0.40051625 48.5406464 0.44419721 54.29103565 0.48156261 C58.70835922 0.51331457 63.1254645 0.5587063 67.54262352 0.60804176 C69.66246541 0.62975844 71.78235999 0.64684079 73.90227699 0.65921593 C76.86861082 0.678255 79.83413989 0.7160474 82.80021667 0.75862122 C83.6767691 0.76032822 84.55332153 0.76203522 85.45643616 0.76379395 C90.1533444 0.85306629 93.34464621 1.15377419 97.14860535 4.22273254 C97.64360535 5.21273254 97.64360535 5.21273254 98.14860535 6.22273254 C97.48860535 6.22273254 96.82860535 6.22273254 96.14860535 6.22273254 C95.81860535 7.21273254 95.48860535 8.20273254 95.14860535 9.22273254 C94.65360535 6.74773254 94.65360535 6.74773254 94.14860535 4.22273254 C91.13191291 3.34854037 88.44515681 3.09630211 85.3087616 3.09333801 C83.86001648 3.08865509 83.86001648 3.08865509 82.38200378 3.08387756 C80.81240906 3.08686859 80.81240906 3.08686859 79.21110535 3.08992004 C78.11443542 3.08869141 77.0177655 3.08746277 75.88786316 3.0861969 C72.30808569 3.08449668 68.72837586 3.09088683 65.14860535 3.09773254 C63.93608093 3.0979541 62.72355652 3.09817566 61.47428894 3.09840393 C44.55022601 3.10204412 27.64707481 3.28787745 10.7384491 4.04255676 C10.05379578 4.06916382 9.36914246 4.09577087 8.66374207 4.1231842 C6.86799041 4.1931799 5.07271062 4.27501721 3.2775116 4.35798645 C-0.09490496 4.21220627 -2.71556409 3.43532464 -5.85139465 2.22273254 C-3.85139465 0.22273254 -3.85139465 0.22273254 0 0 Z " fill="#C97E62" transform="translate(619.8513946533203,501.7772674560547)"/>
<path d="M0 0 C1.00006577 -0.01297119 2.00013153 -0.02594238 3.03050232 -0.03930664 C9.37015507 -0.04736275 15.20814972 0.70200961 21.37109375 2.1875 C21.37109375 2.5175 21.37109375 2.8475 21.37109375 3.1875 C-7.66890625 3.1875 -36.70890625 3.1875 -66.62890625 3.1875 C-66.62890625 2.8575 -66.62890625 2.5275 -66.62890625 2.1875 C-59.53893175 1.89554365 -52.44866027 1.61175472 -45.3581543 1.33300781 C-42.95834368 1.23777596 -40.55860002 1.140838 -38.15893555 1.04199219 C-25.44184286 0.51933541 -12.72844783 0.08491078 0 0 Z " fill="#D28556" transform="translate(642.62890625,520.8125)"/>
<path d="M0 0 C0.99 0 1.98 0 3 0 C2.91621094 0.68707031 2.83242188 1.37414062 2.74609375 2.08203125 C2.64425781 2.98308594 2.54242187 3.88414062 2.4375 4.8125 C2.33308594 5.70582031 2.22867188 6.59914063 2.12109375 7.51953125 C1.84341291 10.13375572 1.84341291 10.13375572 3 13 C3.99 13.33 4.98 13.66 6 14 C6 14.99 6 15.98 6 17 C2.32937509 18.57312496 0.55697326 19.14440048 -3.375 18.125 C-4.24125 17.75375 -5.1075 17.3825 -6 17 C-4.89061647 10.69403048 -3.06802099 5.62470514 0 0 Z " fill="#090907" transform="translate(890,486)"/>
<path d="M0 0 C2.97 0 5.94 0 9 0 C10.59211531 3.18423061 10.38981631 6.53417863 10 10 C8.8125 12 8.8125 12 7 13 C4.3125 13.1875 4.3125 13.1875 2 13 C2 11.35 2 9.7 2 8 C1.34 8 0.68 8 0 8 C0 5.36 0 2.72 0 0 Z " fill="#20B1D2" transform="translate(880,506)"/>
<path d="M0 0 C2.64649178 0.83573425 3.60269501 1.4354087 5.1875 3.6875 C6.26298864 6.74850612 6.59120331 9.78802602 7 13 C7.33 13.99 7.66 14.98 8 16 C6.35 16 4.7 16 3 16 C2.03929566 13.11788698 1.89418117 11.30149956 1.9375 8.3125 C1.94652344 7.50425781 1.95554687 6.69601562 1.96484375 5.86328125 C1.97644531 5.24839844 1.98804688 4.63351562 2 4 C1.34 4 0.68 4 0 4 C0 3.34 0 2.68 0 2 C-2.97 2 -5.94 2 -9 2 C-9.33 2.99 -9.66 3.98 -10 5 C-10.66 5 -11.32 5 -12 5 C-12 7.64 -12 10.28 -12 13 C-12.99 13.495 -12.99 13.495 -14 14 C-14.29397316 9.00245633 -14.0979156 6.01581652 -11 2 C-7.28004984 -0.47996677 -4.30573798 -0.41752611 0 0 Z " fill="#D99B67" transform="translate(608,486)"/>
<path d="M0 0 C0.33 0.99 0.66 1.98 1 3 C1.66 3.33 2.32 3.66 3 4 C4.35304209 8.05912626 3.15216503 9.77149591 1.5625 13.6875 C0.85287109 15.45673828 0.85287109 15.45673828 0.12890625 17.26171875 C-0.24363281 18.16535156 -0.61617187 19.06898438 -1 20 C-1.99 20 -2.98 20 -4 20 C-4.99 17.69 -5.98 15.38 -7 13 C-6.34 13 -5.68 13 -5 13 C-5.33 12.01 -5.66 11.02 -6 10 C-4.26777515 7.14182899 -2.82503705 5.88335803 0 4 C0 2.68 0 1.36 0 0 Z " fill="#DEDDD6" transform="translate(922,412)"/>
<path d="M0 0 C0.99 0.33 1.98 0.66 3 1 C3.6271777 8.99651568 3.6271777 8.99651568 1.125 13 C-1.96493984 15.90817867 -3.58911353 16.12413048 -7.72509766 16.11352539 C-8.70596344 16.11344986 -9.68682922 16.11337433 -10.69741821 16.11329651 C-11.75891083 16.10813522 -12.82040344 16.10297394 -13.9140625 16.09765625 C-14.99883881 16.0962413 -16.08361511 16.09482635 -17.20126343 16.09336853 C-20.67587 16.08775802 -24.15041281 16.07520372 -27.625 16.0625 C-29.97656157 16.05748635 -32.32812415 16.05292321 -34.6796875 16.04882812 C-40.45314686 16.03778518 -46.22656888 16.02103679 -52 16 C-52 15.67 -52 15.34 -52 15 C-51.43481155 14.98969254 -50.86962311 14.97938507 -50.28730774 14.96876526 C-44.39853855 14.86048552 -38.50991574 14.74590537 -32.62133789 14.62768555 C-30.42442898 14.58440548 -28.22748793 14.54272555 -26.03051758 14.50268555 C-22.87050701 14.44481513 -19.71065716 14.38116893 -16.55078125 14.31640625 C-15.57039383 14.29969376 -14.59000641 14.28298126 -13.57991028 14.26576233 C-12.65933334 14.24581711 -11.73875641 14.22587189 -10.7902832 14.20532227 C-9.5811602 14.18200584 -9.5811602 14.18200584 -8.34761047 14.15821838 C-5.53662751 14.01976259 -5.53662751 14.01976259 -1 13 C-0.505 6.565 -0.505 6.565 0 0 Z " fill="#BD644F" transform="translate(716,508)"/>
<path d="M0 0 C0.35480978 4.98704856 0.58540154 8.82919691 -1.6875 13.375 C-6.10880829 18.39378238 -6.10880829 18.39378238 -9 20 C-12.9027847 20.22026298 -16.58176422 20.13653141 -19.7109375 17.62890625 C-22.52014645 14.07908767 -22.3097516 10.33652241 -22 6 C-21.01 5.01 -20.02 4.02 -19 3 C-19.33 6.63 -19.66 10.26 -20 14 C-19.01 14.33 -18.02 14.66 -17 15 C-17 15.66 -17 16.32 -17 17 C-11.67934241 17.56211314 -11.67934241 17.56211314 -7.125 15.5 C-6.75375 15.005 -6.3825 14.51 -6 14 C-5.34 14 -4.68 14 -4 14 C-2.99503148 10.98509443 -2.89664697 8.95818308 -2.9375 5.8125 C-2.94652344 4.91144531 -2.95554687 4.01039063 -2.96484375 3.08203125 C-2.97644531 2.39496094 -2.98804688 1.70789063 -3 1 C-1 0 -1 0 0 0 Z " fill="#53ABB9" transform="translate(893,504)"/>
<path d="M0 0 C-0.8353125 0.37125 -0.8353125 0.37125 -1.6875 0.75 C-5.04043581 2.56239774 -8.26557246 4.53114492 -10 8 C-10.27305392 11.61796442 -10.1905378 14.41568409 -9.0625 17.875 C-6.30641173 20.71460609 -4.17013634 20.96559566 -0.296875 21.21875 C3.37122132 20.86940749 5.22128438 19.35122091 8 17 C6.53607624 21.63575858 6.53607624 21.63575858 4.26953125 23.17578125 C1.45001825 24.1997352 -0.58342694 24.09216808 -3.5625 23.8125 C-4.51253906 23.73644531 -5.46257813 23.66039062 -6.44140625 23.58203125 C-9.28108151 22.93605932 -10.26343865 22.29474178 -12 20 C-13.63437237 14.65114497 -13.88571618 9.67653419 -11.25 4.6875 C-7.74106261 0.49626923 -5.40997488 -0.30055416 0 0 Z " fill="#C9E6EF" transform="translate(882,502)"/>
<path d="M0 0 C0.66 0.33 1.32 0.66 2 1 C2.99 1.33 3.98 1.66 5 2 C5.99 2.66 6.98 3.32 8 4 C7.41022253 5.8172331 6.80271547 7.62872043 6.1875 9.4375 C5.68283203 10.95150391 5.68283203 10.95150391 5.16796875 12.49609375 C4.78253906 13.32238281 4.39710938 14.14867187 4 15 C3.01 15.33 2.02 15.66 1 16 C0.71125 15.030625 0.4225 14.06125 0.125 13.0625 C-0.64214682 9.89335797 -0.64214682 9.89335797 -3 9 C-2.01 6.03 -1.02 3.06 0 0 Z " fill="#E0DCD8" transform="translate(791,375)"/>
<path d="M0 0 C0 0.33 0 0.66 0 1 C-1.0621875 1.06058594 -2.124375 1.12117188 -3.21875 1.18359375 C-4.64584143 1.26809258 -6.07292431 1.35273575 -7.5 1.4375 C-8.19609375 1.47681641 -8.8921875 1.51613281 -9.609375 1.55664062 C-10.65351562 1.61948242 -10.65351562 1.61948242 -11.71875 1.68359375 C-12.34716797 1.72025146 -12.97558594 1.75690918 -13.62304688 1.79467773 C-15.6369667 1.96864102 -17.64289534 2.23155492 -19.64453125 2.51367188 C-24.4253776 3.12193746 -29.15544831 3.12597011 -33.96875 3.09765625 C-35.35012146 3.09553383 -35.35012146 3.09553383 -36.75939941 3.09336853 C-39.67296734 3.08781407 -42.58645568 3.07527025 -45.5 3.0625 C-47.48697805 3.05747911 -49.47395731 3.05291723 -51.4609375 3.04882812 C-56.30732188 3.0378596 -61.15364749 3.02062683 -66 3 C-66 2.34 -66 1.68 -66 1 C-43.99073432 0.22687931 -22.02293171 -0.14574329 0 0 Z " fill="#D5754D" transform="translate(688,504)"/>
<path d="M0 0 C1.32 0.33 2.64 0.66 4 1 C3.34 1.66 2.68 2.32 2 3 C1.53709779 5.66242821 1.53709779 5.66242821 1.375 8.625 C1.30023438 9.62789062 1.22546875 10.63078125 1.1484375 11.6640625 C1.09945313 12.43492187 1.05046875 13.20578125 1 14 C1.99 14.66 2.98 15.32 4 16 C4 16.99 4 17.98 4 19 C1.125 18.8125 1.125 18.8125 -2 18 C-4.51686175 14.22470737 -4.76491697 9.41161417 -4 5 C-2 2 -2 2 0 0 Z " fill="#E7BE5F" transform="translate(508,504)"/>
<path d="M0 0 C0.66 0 1.32 0 2 0 C2.33 0.33 2.66 0.66 3 1 C3.99 1 4.98 1 6 1 C5.484375 1.804375 4.96875 2.60875 4.4375 3.4375 C2.59781702 7.99671435 3.1263679 11.26344042 4 16 C3.01 15.67 2.02 15.34 1 15 C1.33 14.34 1.66 13.68 2 13 C1.01 12.67 0.02 12.34 -1 12 C-3.17175481 8.74236778 -3.46043998 7.77560787 -3 4 C-1.625 1.6875 -1.625 1.6875 0 0 Z " fill="#080807" transform="translate(805,506)"/>
<path d="M0 0 C1.05904289 0.00636726 1.05904289 0.00636726 2.13948059 0.01286316 C4.39155428 0.02963841 6.64272867 0.06728632 8.89453125 0.10546875 C10.4225131 0.12051718 11.95050901 0.13420531 13.47851562 0.14648438 C17.22169997 0.17953786 20.96421321 0.23131043 24.70703125 0.29296875 C24.70703125 0.62296875 24.70703125 0.95296875 24.70703125 1.29296875 C9.36203125 1.78796875 9.36203125 1.78796875 -6.29296875 2.29296875 C-6.95296875 4.60296875 -7.61296875 6.91296875 -8.29296875 9.29296875 C-8.62296875 10.28296875 -8.95296875 11.27296875 -9.29296875 12.29296875 C-8.63296875 12.29296875 -7.97296875 12.29296875 -7.29296875 12.29296875 C-7.62296875 13.61296875 -7.95296875 14.93296875 -8.29296875 16.29296875 C-9.28296875 15.63296875 -10.27296875 14.97296875 -11.29296875 14.29296875 C-11.20573497 12.52122056 -11.0975522 10.75049498 -10.98046875 8.98046875 C-10.92246094 7.99433594 -10.86445313 7.00820313 -10.8046875 5.9921875 C-9.61784081 -0.26820228 -5.58988489 -0.12645124 0 0 Z " fill="#E7BB53" transform="translate(519.29296875,503.70703125)"/>
<path d="M0 0 C1.671549 0.30791692 3.33805547 0.64386903 5 1 C5.99 1 6.98 1 8 1 C6.87548273 3.9719385 5.77706209 6.33440687 4 9 C3.34 8.67 2.68 8.34 2 8 C2 8.66 2 9.32 2 10 C1.01 9.67 0.02 9.34 -1 9 C-1.09765625 2.84765625 -1.09765625 2.84765625 -1 1 C-0.67 0.67 -0.34 0.34 0 0 Z " fill="#10100E" transform="translate(754,509)"/>
<path d="M0 0 C0.66 0.66 1.32 1.32 2 2 C2.66 1.67 3.32 1.34 4 1 C5 4 5 4 3.8125 7.0625 C1.90487407 10.15416962 1.19215085 10.64575418 -2 12 C-3.37086915 13.29470975 -4.71340837 14.62150897 -6 16 C-4.25192871 10.53262809 -2.34205919 5.24175152 0 0 Z " fill="#191916" transform="translate(938,388)"/>
<path d="M0 0 C2.31 0 4.62 0 7 0 C5.31326082 4.49797113 3.18326108 8.72886302 1 13 C0.01 12.01 -0.98 11.02 -2 10 C-1.67 9.278125 -1.34 8.55625 -1 7.8125 C0.00603529 4.98302573 0.16977402 2.97104534 0 0 Z " fill="#1B1715" transform="translate(858,323)"/>
<path d="M0 0 C4.875 1.75 4.875 1.75 6 4 C6.14943856 6.26744274 6.22144902 8.5403175 6.25 10.8125 C6.28867187 12.64748047 6.28867187 12.64748047 6.328125 14.51953125 C5.97634145 18.25094959 5.41005895 20.1424357 3 23 C0.20034321 23.66913403 -2.08800141 23.23868841 -5 23 C-4.443125 22.608125 -3.88625 22.21625 -3.3125 21.8125 C-2.549375 21.214375 -1.78625 20.61625 -1 20 C-0.0925 19.29875 0.815 18.5975 1.75 17.875 C4.46692627 14.40337199 4.6641238 12.52285579 4.44140625 8.2265625 C3.75243622 4.75122694 2.23219656 2.72048956 0 0 Z " fill="#F6D8CC" transform="translate(714,503)"/>
<path d="M0 0 C2.96659857 3.55991828 5.381348 7.65222543 7 12 C6.67 12.66 6.34 13.32 6 14 C3.03 13.505 3.03 13.505 0 13 C0.33 11.02 0.66 9.04 1 7 C0.34 7 -0.32 7 -1 7 C-1.625 5.1875 -1.625 5.1875 -2 3 C-1.34 2.01 -0.68 1.02 0 0 Z " fill="#DDDCD6" transform="translate(890,418)"/>
<path d="M0 0 C1.5 1.0625 1.5 1.0625 3 3 C3.26641894 6.72986522 3.1845131 9.44646071 2 13 C0.02 13 -1.96 13 -4 13 C-3.649375 12.38125 -3.29875 11.7625 -2.9375 11.125 C-2.628125 10.42375 -2.31875 9.7225 -2 9 C-2.33 8.34 -2.66 7.68 -3 7 C-2.34 7 -1.68 7 -1 7 C-0.67 4.69 -0.34 2.38 0 0 Z " fill="#E25444" transform="translate(713,508)"/>
<path d="M0 0 C1.58467728 0.28427417 3.1677057 0.57774818 4.75 0.875 C6.07257812 1.11863281 6.07257812 1.11863281 7.421875 1.3671875 C10 2 10 2 11.96875 3.03125 C14.58348127 4.27827568 16.86987262 4.41927662 19.75 4.625 C20.73484375 4.69976562 21.7196875 4.77453125 22.734375 4.8515625 C23.48203125 4.90054687 24.2296875 4.94953125 25 5 C25 5.33 25 5.66 25 6 C17.0395089 6.20382481 9.66942342 6.30082703 2 4 C1.34 3.34 0.68 2.68 0 2 C0 1.34 0 0.68 0 0 Z " fill="#22201E" transform="translate(537,467)"/>
<path d="M0 0 C2.97 0 5.94 0 9 0 C9 0.66 9 1.32 9 2 C7.8553125 1.87625 7.8553125 1.87625 6.6875 1.75 C3.94359846 1.74321645 3.94359846 1.74321645 2.1875 3.5625 C0.60816828 6.80428616 0.79478204 9.44288878 1 13 C0.01 13 -0.98 13 -2 13 C-2.19294408 8.17639811 -1.75747614 4.50353262 0 0 Z M-6 14 C-5.01 14.33 -4.02 14.66 -3 15 C-3.99 15.33 -4.98 15.66 -6 16 C-6 15.34 -6 14.68 -6 14 Z " fill="#E3964C" transform="translate(599,488)"/>
<path d="M0 0 C0.99 0 1.98 0 3 0 C3.33 1.65 3.66 3.3 4 5 C3.34 5 2.68 5 2 5 C1.9175 5.5775 1.835 6.155 1.75 6.75 C0.78202213 9.6539336 -0.68694284 11.03740604 -3 13 C-3.66 13 -4.32 13 -5 13 C-3.58192622 8.52761347 -1.88695626 4.28853694 0 0 Z " fill="#1C1C19" transform="translate(907,459)"/>
<path d="M0 0 C0.99 0 1.98 0 3 0 C2.8864371 1.64666203 2.75882619 3.29236082 2.625 4.9375 C2.55539062 5.85402344 2.48578125 6.77054687 2.4140625 7.71484375 C2.27742187 8.46894531 2.14078125 9.22304688 2 10 C-0.49092811 11.24546405 -1.41080733 10.7767578 -4 10 C-2.8905928 6.51329166 -1.73662334 3.22515763 0 0 Z " fill="#23211F" transform="translate(890,486)"/>
<path d="M0 0 C2.74792483 3.40219265 6 7.48464588 6 12 C4.35 11.67 2.7 11.34 1 11 C1 10.34 1 9.68 1 9 C0.34 8.67 -0.32 8.34 -1 8 C-1.33 7.01 -1.66 6.02 -2 5 C-1.34 5 -0.68 5 0 5 C-0.33 4.01 -0.66 3.02 -1 2 C-0.67 1.34 -0.34 0.68 0 0 Z " fill="#D8D5D1" transform="translate(883,404)"/>
<path d="M0 0 C0.99 0.33 1.98 0.66 3 1 C2.88570603 2.77155654 2.75816963 4.54226229 2.625 6.3125 C2.55539062 7.29863281 2.48578125 8.28476562 2.4140625 9.30078125 C2 12 2 12 0 15 C-0.99 14.67 -1.98 14.34 -3 14 C-2.68289063 13.44828125 -2.36578125 12.8965625 -2.0390625 12.328125 C-0.87290025 9.71522011 -0.59954289 7.59420998 -0.375 4.75 C-0.30023437 3.85796875 -0.22546875 2.9659375 -0.1484375 2.046875 C-0.09945312 1.37140625 -0.05046875 0.6959375 0 0 Z " fill="#D4EBEF" transform="translate(893,504)"/>
<path d="M0 0 C2.60018816 3.90028225 2.15085514 7.47434569 2 12 C0.02 12 -1.96 12 -4 12 C-2.87204037 7.89100419 -1.66489182 3.92438786 0 0 Z " fill="#D9D7D2" transform="translate(938,436)"/>
<path d="M0 0 C0.33 0 0.66 0 1 0 C1.05382106 2.62527189 1.09358313 5.24944713 1.125 7.875 C1.14175781 8.62136719 1.15851562 9.36773437 1.17578125 10.13671875 C1.1933959 12.09194461 1.10320189 14.04742021 1 16 C0.34 16.66 -0.32 17.32 -1 18 C-1.40047444 20.32275177 -1.7397104 22.65739357 -2 25 C-2.33 25 -2.66 25 -3 25 C-3 21.04 -3 17.08 -3 13 C-2.34 13 -1.68 13 -1 13 C-0.67 8.71 -0.34 4.42 0 0 Z " fill="#EDEAE5" transform="translate(622,374)"/>
<path d="M0 0 C0.66 0.33 1.32 0.66 2 1 C1.51015625 1.39316406 1.0203125 1.78632813 0.515625 2.19140625 C-1.46992026 4.56075536 -1.34178898 5.88551656 -1.25 8.9375 C-1.23453125 9.79214844 -1.2190625 10.64679687 -1.203125 11.52734375 C-1.01658587 13.79809898 -0.62855941 15.81524914 0 18 C-0.66 18 -1.32 18 -2 18 C-4.13198937 13.73602127 -4.81327624 9.69052342 -4 5 C-2 2 -2 2 0 0 Z " fill="#E6CB88" transform="translate(508,504)"/>
<path d="M0 0 C0.20140476 3.62528568 -0.14223235 5.86501708 -2 9 C-1.34 9 -0.68 9 0 9 C-0.33 10.32 -0.66 11.64 -1 13 C-1.99 12.34 -2.98 11.68 -4 11 C-3.8864371 9.35333797 -3.75882619 7.70763918 -3.625 6.0625 C-3.55539062 5.14597656 -3.48578125 4.22945313 -3.4140625 3.28515625 C-3.27742188 2.53105469 -3.14078125 1.77695312 -3 1 C-1 0 -1 0 0 0 Z " fill="#F5BA4A" transform="translate(512,507)"/>
<path d="M0 0 C0.99 0.66 1.98 1.32 3 2 C2.25234375 2.03738281 1.5046875 2.07476562 0.734375 2.11328125 C-0.25046875 2.17902344 -1.2353125 2.24476563 -2.25 2.3125 C-3.22453125 2.37050781 -4.1990625 2.42851562 -5.203125 2.48828125 C-8.25341611 3.04636524 -9.70711276 3.96369776 -12 6 C-12.33 5.01 -12.66 4.02 -13 3 C-9.34246654 -0.81655665 -4.96802884 -0.70449028 0 0 Z " fill="#53A8B6" transform="translate(887,503)"/>
<path d="M0 0 C3.3 1.65 6.6 3.3 10 5 C5.82091936 7.08954032 5.19589427 7.16552619 1 6 C0.67 4.02 0.34 2.04 0 0 Z M-1 5 C-0.01 5.495 -0.01 5.495 1 6 C0.67 6.66 0.34 7.32 0 8 C-0.33 7.01 -0.66 6.02 -1 5 Z " fill="#DCD9D5" transform="translate(527,464)"/>
<path d="M0 0 C1.32 0.33 2.64 0.66 4 1 C3.67 4.3 3.34 7.6 3 11 C2.34 10.67 1.68 10.34 1 10 C0.690625 9.01 0.38125 8.02 0.0625 7 C-0.288125 6.01 -0.63875 5.02 -1 4 C-1.99 3.67 -2.98 3.34 -4 3 C-2.25 1.4375 -2.25 1.4375 0 0 Z " fill="#070605" transform="translate(875,376)"/>
<path d="M0 0 C4.50802601 1.25805377 7.4912812 2.90407165 11 6 C6.24792529 6.43200679 3.21789302 4.98489083 -1 3 C-0.67 2.01 -0.34 1.02 0 0 Z " fill="#DCDAD5" transform="translate(563,391)"/>
<path d="M0 0 C-0.8353125 0.37125 -0.8353125 0.37125 -1.6875 0.75 C-5.66048336 2.89755857 -8.49278699 5.23918048 -11 9 C-11.39013716 10.9896995 -11.73202649 12.99019869 -12 15 C-12.33 15 -12.66 15 -13 15 C-13.45543387 9.30707666 -12.68246386 6.3984985 -9 2 C-6.00889434 -0.12272015 -3.61562381 -0.20086799 0 0 Z " fill="#CEECEF" transform="translate(882,502)"/>
<path d="M0 0 C1.9375 0.8125 1.9375 0.8125 4 2 C4.33 2.99 4.66 3.98 5 5 C1.535 6.485 1.535 6.485 -2 8 C-2.33 6.35 -2.66 4.7 -3 3 C-1.68 3 -0.36 3 1 3 C0.67 2.01 0.34 1.02 0 0 Z " fill="#E0DED8" transform="translate(531,370)"/>
<path d="M0 0 C2.09350689 3.4019487 2.17942163 6.05272412 2 10 C0.68 10.33 -0.64 10.66 -2 11 C-2.95465783 8.83032311 -3.14401212 7.43671207 -2.3984375 5.17578125 C-1.64129615 3.4315257 -0.82390802 1.71372869 0 0 Z " fill="#D8D4D1" transform="translate(931,452)"/>
<path d="M0 0 C2 2 2 2 2.3125 4.9375 C2 8 2 8 0.5 9.875 C-0.2425 10.431875 -0.2425 10.431875 -1 11 C-1.66 10.34 -2.32 9.68 -3 9 C-2.01 6.03 -1.02 3.06 0 0 Z " fill="#1B1917" transform="translate(924,421)"/>
<path d="M0 0 C2 3 2 3 1.875 5.4375 C0.824508 8.51394087 -0.50052603 9.95497584 -3 12 C-3.66 12 -4.32 12 -5 12 C-3.68938409 7.76570244 -2.05643741 3.92592596 0 0 Z " fill="#D4D2CE" transform="translate(794,324)"/>
<path d="M0 0 C0.66 0.33 1.32 0.66 2 1 C1.01 1.33 0.02 1.66 -1 2 C-1.33 2.99 -1.66 3.98 -2 5 C-2.66 5 -3.32 5 -4 5 C-4 7.64 -4 10.28 -4 13 C-4.99 13.495 -4.99 13.495 -6 14 C-6.29397316 9.00245633 -6.0979156 6.01581652 -3 2 C-2.01 1.34 -1.02 0.68 0 0 Z " fill="#D8A774" transform="translate(600,486)"/>
<path d="M0 0 C0.33 0.66 0.66 1.32 1 2 C3.02463255 2.65213292 3.02463255 2.65213292 5 3 C4.2884375 4.175625 4.2884375 4.175625 3.5625 5.375 C2.66101977 6.88948678 1.78820515 8.4235897 1 10 C0.01 9.01 -0.98 8.02 -2 7 C-1.34 4.69 -0.68 2.38 0 0 Z " fill="#DFDDD3" transform="translate(860,382)"/>
<path d="M0 0 C0.66 0.33 1.32 0.66 2 1 C1.50769231 7.4 1.50769231 7.4 -1.0625 10.4375 C-2.0215625 11.2109375 -2.0215625 11.2109375 -3 12 C-3.66 11.67 -4.32 11.34 -5 11 C-4.34 10.34 -3.68 9.68 -3 9 C-2.835 8.175 -2.67 7.35 -2.5 6.5 C-2 4 -2 4 0 2 C0 1.34 0 0.68 0 0 Z " fill="#E0DED8" transform="translate(726,376)"/>
<path d="M0 0 C0.66 0.33 1.32 0.66 2 1 C2 1.33 2 1.66 2 2 C2.99 2.33 3.98 2.66 5 3 C3.35 4.65 1.7 6.3 0 8 C0 7.34 0 6.68 0 6 C-0.66 6 -1.32 6 -2 6 C-2 4.35 -2 2.7 -2 1 C-1.34 0.67 -0.68 0.34 0 0 Z " fill="#12130F" transform="translate(763,338)"/>
<path d="M0 0 C0.33 0.66 0.66 1.32 1 2 C0.22265625 3.9453125 0.22265625 3.9453125 -0.9375 6.125 C-1.31777344 6.84945313 -1.69804688 7.57390625 -2.08984375 8.3203125 C-2.39019531 8.87460937 -2.69054687 9.42890625 -3 10 C-3.66 10 -4.32 10 -5 10 C-5.33 10.99 -5.66 11.98 -6 13 C-5.58221009 7.2902045 -3.42453429 4.39042858 0 0 Z " fill="#24211F" transform="translate(750,331)"/>
<path d="M0 0 C1.5625 1.8125 1.5625 1.8125 3 4 C2 7 2 7 -1 9 C-1.66 7.02 -2.32 5.04 -3 3 C-2.01 2.01 -1.02 1.02 0 0 Z " fill="#E0DCD9" transform="translate(605,321)"/>
<path d="M0 0 C4.875 1.75 4.875 1.75 6 4 C6.07065617 6.04055005 6.08421976 8.08334257 6.0625 10.125 C6.05347656 11.22070312 6.04445313 12.31640625 6.03515625 13.4453125 C6.02355469 14.28835938 6.01195312 15.13140625 6 16 C5.34 16.33 4.68 16.66 4 17 C4.06960938 15.91332031 4.06960938 15.91332031 4.140625 14.8046875 C4.37745225 8.46110041 4.20146971 4.85794935 0 0 Z " fill="#F8D1C2" transform="translate(714,503)"/>
<path d="M0 0 C0.66 0 1.32 0 2 0 C2.38922918 1.28745036 2.76098036 2.58019597 3.125 3.875 C3.33382812 4.59429687 3.54265625 5.31359375 3.7578125 6.0546875 C3.83773437 6.69664062 3.91765625 7.33859375 4 8 C3.34 8.66 2.68 9.32 2 10 C1.67 8.35 1.34 6.7 1 5 C0.01 4.67 -0.98 4.34 -2 4 C-1.34 2.68 -0.68 1.36 0 0 Z " fill="#1E1D1C" transform="translate(642,435)"/>
<path d="M0 0 C0.66 0.33 1.32 0.66 2 1 C1.67 2.98 1.34 4.96 1 7 C-0.98 7.66 -2.96 8.32 -5 9 C-4.5504955 7.68445015 -4.09010284 6.37261642 -3.625 5.0625 C-3.36976563 4.33160156 -3.11453125 3.60070312 -2.8515625 2.84765625 C-2 1 -2 1 0 0 Z " fill="#DBD9D2" transform="translate(582,407)"/>
<path d="M0 0 C6.93 0 13.86 0 21 0 C21 0.33 21 0.66 21 1 C19.08574219 1.07347656 19.08574219 1.07347656 17.1328125 1.1484375 C15.46351928 1.22346191 13.79424954 1.29900988 12.125 1.375 C10.86236328 1.42140625 10.86236328 1.42140625 9.57421875 1.46875 C8.36572266 1.52675781 8.36572266 1.52675781 7.1328125 1.5859375 C6.38918457 1.6173584 5.64555664 1.6487793 4.87939453 1.68115234 C2.75989026 1.85419551 2.75989026 1.85419551 1 4 C0.67 2.68 0.34 1.36 0 0 Z " fill="#2E2D29" transform="translate(867,372)"/>
<path d="M0 0 C-0.99 1.485 -0.99 1.485 -2 3 C-4.625 3.1875 -4.625 3.1875 -7 3 C-7 2.34 -7 1.68 -7 1 C-7.66 0.67 -8.32 0.34 -9 0 C-5.93109813 -1.53445094 -3.29905734 -0.54984289 0 0 Z " fill="#DAD7CF" transform="translate(897,483)"/>
<path d="M0 0 C2 2 2 2 2.125 5.625 C2.08375 6.73875 2.0425 7.8525 2 9 C1.34 8.67 0.68 8.34 0 8 C-0.66 8.66 -1.32 9.32 -2 10 C-3 8 -3 8 -2.44140625 6.0546875 C-2.15136719 5.33539063 -1.86132812 4.61609375 -1.5625 3.875 C-1.27503906 3.15054687 -0.98757813 2.42609375 -0.69140625 1.6796875 C-0.46324219 1.12539063 -0.23507812 0.57109375 0 0 Z " fill="#1E1C19" transform="translate(901,473)"/>
<path d="M0 0 C0.98120464 3.05263664 0.98120464 4.94736336 0 8 C-1.32 8.33 -2.64 8.66 -4 9 C-4 5.00095031 -2.27413033 3.19799578 0 0 Z " fill="#D8D5D2" transform="translate(707,452)"/>
<path d="M0 0 C2.475 0.495 2.475 0.495 5 1 C5.625 3.875 5.625 3.875 6 7 C5.34 7.66 4.68 8.32 4 9 C2.68 6.03 1.36 3.06 0 0 Z " fill="#191714" transform="translate(898,433)"/>
<path d="M0 0 C0.66 1.32 1.32 2.64 2 4 C-1.96 4 -5.92 4 -10 4 C-10 3.34 -10 2.68 -10 2 C-9.0925 2.04125 -8.185 2.0825 -7.25 2.125 C-4.1217954 2.00468444 -2.61385994 1.6085292 0 0 Z " fill="#EBE9E7" transform="translate(740,368)"/>
<path d="M0 0 C0 3 0 3 -1 6 C-1.99 6.33 -2.98 6.66 -4 7 C-4.99 6.01 -5.98 5.02 -7 4 C-6.67 3.01 -6.34 2.02 -6 1 C-4.515 1.99 -4.515 1.99 -3 3 C-2.01 2.01 -1.02 1.02 0 0 Z " fill="#DFDAD5" transform="translate(654,441)"/>
<path d="M0 0 C0.33 0.99 0.66 1.98 1 3 C1.66 3 2.32 3 3 3 C2.8125 4.875 2.8125 4.875 2 7 C-0.5625 8.25 -0.5625 8.25 -3 9 C-2.01 6.03 -1.02 3.06 0 0 Z " fill="#D1CEC9" transform="translate(947,416)"/>
<path d="M0 0 C1.37562854 1.28965176 2.70766393 2.62689293 4 4 C4 4.66 4 5.32 4 6 C1.69 6.66 -0.62 7.32 -3 8 C-1.125 2.25 -1.125 2.25 0 0 Z " fill="#D7D5D0" transform="translate(955,398)"/>
<path d="M0 0 C0.763125 0.61875 1.52625 1.2375 2.3125 1.875 C4.99625809 4.05597052 4.99625809 4.05597052 8 6 C4.23375329 7.25541557 2.62811066 6.37061958 -1 5 C-0.67 3.35 -0.34 1.7 0 0 Z " fill="#0D2228" transform="translate(885,498)"/>
<path d="M0 0 C0.91007813 0.00902344 1.82015625 0.01804687 2.7578125 0.02734375 C3.45648437 0.03894531 4.15515625 0.05054688 4.875 0.0625 C4.545 0.7225 4.215 1.3825 3.875 2.0625 C1.80859375 2.6953125 1.80859375 2.6953125 -0.6875 3.1875 C-1.92693359 3.43886719 -1.92693359 3.43886719 -3.19140625 3.6953125 C-3.82949219 3.81648438 -4.46757813 3.93765625 -5.125 4.0625 C-5.785 3.0725 -6.445 2.0825 -7.125 1.0625 C-4.60024538 -0.19987731 -2.81299534 -0.03606404 0 0 Z " fill="#131311" transform="translate(901.125,498.9375)"/>
<path d="M0 0 C2.97 0.495 2.97 0.495 6 1 C4.625 2.5 4.625 2.5 3 4 C2.34 4 1.68 4 1 4 C0.67 5.98 0.34 7.96 0 10 C-0.33 10 -0.66 10 -1 10 C-1.125 2.25 -1.125 2.25 0 0 Z " fill="#282624" transform="translate(586,324)"/>
<path d="M0 0 C0.61875 0.474375 1.2375 0.94875 1.875 1.4375 C3.90705546 3.02417441 3.90705546 3.02417441 6 4 C4.515 6.475 4.515 6.475 3 9 C0.87491756 5.81237635 0.4979837 3.73487777 0 0 Z " fill="#1B1B1B" transform="translate(624,437)"/>
<path d="M0 0 C0.99 0.33 1.98 0.66 3 1 C0.25 5.875 0.25 5.875 -2 7 C-2.6875 5.1875 -2.6875 5.1875 -3 3 C-1.5625 1.25 -1.5625 1.25 0 0 Z " fill="#D7D2CE" transform="translate(688,441)"/>
<path d="M0 0 C0.66 0.33 1.32 0.66 2 1 C1.39816251 3.02045442 0.72693904 5.02111039 0 7 C-0.99 7.495 -0.99 7.495 -2 8 C-2.33 5.69 -2.66 3.38 -3 1 C-2.01 0.67 -1.02 0.34 0 0 Z " fill="#DAD8D1" transform="translate(582,432)"/>
<path d="M0 0 C0.33 0.66 0.66 1.32 1 2 C-0.0625 4 -0.0625 4 -2 6 C-5.6875 6.25 -5.6875 6.25 -9 6 C-8.443125 5.7525 -7.88625 5.505 -7.3125 5.25 C-4.60028873 3.78393985 -2.36412635 1.97010529 0 0 Z " fill="#B8E2EA" transform="translate(889,519)"/>
<path d="M0 0 C3 1 3 1 5 2 C4.34 3.65 3.68 5.3 3 7 C2.34 6.67 1.68 6.34 1 6 C0.375 2.9375 0.375 2.9375 0 0 Z " fill="#090907" transform="translate(754,509)"/>
<path d="M0 0 C1.32 0.33 2.64 0.66 4 1 C3.34 3.31 2.68 5.62 2 8 C1.34 8 0.68 8 0 8 C0 5.36 0 2.72 0 0 Z " fill="#18B5CA" transform="translate(880,506)"/>
<path d="M0 0 C0.99 0 1.98 0 3 0 C2.55149342 1.81495662 2.09090429 3.62693134 1.625 5.4375 C1.24214844 6.95150391 1.24214844 6.95150391 0.8515625 8.49609375 C0 11 0 11 -2 12 C-1.34 8.04 -0.68 4.08 0 0 Z " fill="#F9E1C1" transform="translate(594,487)"/>
<path d="M0 0 C0.66 0.66 1.32 1.32 2 2 C1.67 2.99 1.34 3.98 1 5 C-1.64 4.67 -4.28 4.34 -7 4 C-4.68143083 2.45428722 -2.49361571 1.20381448 0 0 Z " fill="#D9D8D4" transform="translate(580,466)"/>
<path d="M0 0 C0.66 0.99 1.32 1.98 2 3 C-0.0072908 6.0109362 -0.83884224 6.63016497 -4 8 C-2.87548273 5.0280615 -1.77706209 2.66559313 0 0 Z " fill="#D6D4D0" transform="translate(530,402)"/>
<path d="M0 0 C1.98 0.99 3.96 1.98 6 3 C6 3.33 6 3.66 6 4 C1.71 4 -2.58 4 -7 4 C-7 3.67 -7 3.34 -7 3 C-3.535 2.505 -3.535 2.505 0 2 C0 1.34 0 0.68 0 0 Z " fill="#050103" transform="translate(736,385)"/>
<path d="M0 0 C-0.33 1.65 -0.66 3.3 -1 5 C-3.97 4.505 -3.97 4.505 -7 4 C-3.375 0 -3.375 0 0 0 Z " fill="#D7D4D1" transform="translate(700,463)"/>
<path d="M0 0 C1.98 0.66 3.96 1.32 6 2 C5.01 3.32 4.02 4.64 3 6 C1.68 5.34 0.36 4.68 -1 4 C-0.67 2.68 -0.34 1.36 0 0 Z " fill="#141310" transform="translate(647,464)"/>
<path d="M0 0 C0.66 0 1.32 0 2 0 C2 0.66 2 1.32 2 2 C2.99 2 3.98 2 5 2 C5.66 3.32 6.32 4.64 7 6 C4 6 4 6 1.8125 4.125 C0 2 0 2 0 0 Z " fill="#1B1714" transform="translate(521,457)"/>
<path d="M0 0 C0.99 0 1.98 0 3 0 C2.67 1.65 2.34 3.3 2 5 C0.68 5.33 -0.64 5.66 -2 6 C-1.34 4.02 -0.68 2.04 0 0 Z " fill="#CFCECC" transform="translate(712,442)"/>
<path d="M0 0 C0.33 1.32 0.66 2.64 1 4 C-0.65 4.33 -2.3 4.66 -4 5 C-2.25 1.125 -2.25 1.125 0 0 Z " fill="#DC5333" transform="translate(713,516)"/>
<path d="M0 0 C-0.33 2.31 -0.66 4.62 -1 7 C-3 6 -3 6 -4 3 C-4.66 2.34 -5.32 1.68 -6 1 C-4 0 -4 0 0 0 Z " fill="#DA593E" transform="translate(716,514)"/>
<path d="M0 0 C3.5625 0.25 3.5625 0.25 7 1 C7.33 1.66 7.66 2.32 8 3 C4.18510326 4.46726798 1.70988378 3.43336419 -2 2 C-1.34 1.34 -0.68 0.68 0 0 Z " fill="#D58C5D" transform="translate(616,502)"/>
<path d="M0 0 C3 1 3 1 5 4 C5.125 6.6875 5.125 6.6875 5 9 C2.67527795 6.14693203 1.2491742 3.45925163 0 0 Z " fill="#1A1917" transform="translate(890,417)"/>
<path d="M0 0 C1.32 0 2.64 0 4 0 C3.67 1.65 3.34 3.3 3 5 C2.67 4.34 2.34 3.68 2 3 C1.34 3 0.68 3 0 3 C-0.33 3.66 -0.66 4.32 -1 5 C-0.67 3.35 -0.34 1.7 0 0 Z " fill="#121210" transform="translate(787,329)"/>
<path d="M0 0 C0.66 1.32 1.32 2.64 2 4 C1.01 4.99 0.02 5.98 -1 7 C-1.33 5.02 -1.66 3.04 -2 1 C-1.34 0.67 -0.68 0.34 0 0 Z " fill="#EDEAE3" transform="translate(797,323)"/>
</svg>
